<?xml version="1.0" standalone="no"?><!DOCTYPE svg PUBLIC "-//W3C//DTD SVG 1.1//EN" "http://www.w3.org/Graphics/SVG/1.1/DTD/svg11.dtd"><svg t="1725644522625" class="icon" viewBox="0 0 1024 1024" version="1.1" xmlns="http://www.w3.org/2000/svg" p-id="4608" xmlns:xlink="http://www.w3.org/1999/xlink" width="256" height="256"><path d="M529.493333 107.008l2.005334-0.256h3.712l4.522666 0.896 3.157334 1.28 256 128a21.333333 21.333333 0 0 1 0 38.144L581.034667 384l217.856 108.928a21.333333 21.333333 0 0 1-0.128 38.229333l-245.632 121.045334 1.536 243.669333a21.333333 21.333333 0 0 1-32.085334 18.56l-256-149.333333A21.333333 21.333333 0 0 1 256 746.666667l0.085333-492.544 0.768-4.138667 0.938667-2.517333 0.512-1.066667a21.418667 21.418667 0 0 1 2.56-3.968l2.816-2.816 3.072-2.133333 259.157333-129.493334 3.626667-0.981333z" fill="#6A41B1" p-id="4609"></path></svg>